<svg width="474" height="73" viewBox="0 0 474 73" fill="none" xmlns="http://www.w3.org/2000/svg">
<path d="M34.4557 72.4333C52.5147 72.4333 66.6561 60.4895 69.0448 42.7171H53.6613C51.9414 52.5588 44.3929 59.4384 34.6468 59.4384C22.8941 59.4384 14.9634 50.0745 14.9634 36.6019C14.9634 23.2249 22.8941 13.9565 34.6468 13.9565C44.3929 13.9565 52.0369 20.7406 53.6613 30.5823H69.0448C66.6561 13.001 52.5147 0.961721 34.4557 0.961721C15.1545 0.961721 0.0576056 16.5364 0.0576056 36.6019C0.0576056 56.763 15.1545 72.4333 34.4557 72.4333Z" fill="#E94612"/>
<path d="M108.424 71H119.221V38.8951C119.221 26.3781 111.386 19.0207 98.0092 19.0207C85.6833 19.0207 77.1793 26.6647 76.4149 38.4174H88.3587C88.8364 32.6844 92.2762 29.3401 98.0092 29.3401C103.551 29.3401 106.8 32.6844 106.8 38.4174V41.475C103.647 41.0928 101.162 40.9017 98.2959 40.9017C83.39 40.9017 75.3638 46.2525 75.3638 56.1897C75.3638 65.7447 82.4345 71.9555 93.0406 71.9555C100.016 71.9555 105.08 69.4712 108.424 64.6937V71ZM87.8809 55.8075C87.8809 51.2211 91.6074 48.8324 99.1558 48.8324C101.449 48.8324 103.647 49.0235 106.8 49.5012V53.1321C106.8 59.0562 102.691 62.7827 95.9071 62.7827C90.9385 62.7827 87.8809 60.1073 87.8809 55.8075ZM278.881 71.9555C292.545 71.9555 302.1 63.2604 303.629 49.2146H289.678C288.914 56.1897 284.996 60.2028 278.881 60.2028C271.906 60.2028 267.606 54.6609 267.606 45.4881C267.606 36.4108 272.002 30.7734 278.881 30.7734C284.901 30.7734 289.01 34.9776 289.678 41.7616H303.629C302.004 28.0024 292.163 19.0207 278.881 19.0207C264.549 19.0207 254.038 30.2001 254.038 45.4881C254.038 61.0628 264.166 71.9555 278.881 71.9555ZM342.541 71H353.338V38.8951C353.338 26.3781 345.503 19.0207 332.126 19.0207C319.8 19.0207 311.296 26.6647 310.531 38.4174H322.475C322.953 32.6844 326.393 29.3401 332.126 29.3401C337.668 29.3401 340.916 32.6844 340.916 38.4174V41.475C337.763 41.0928 335.279 40.9017 332.412 40.9017C317.507 40.9017 309.48 46.2525 309.48 56.1897C309.48 65.7447 316.551 71.9555 327.157 71.9555C334.132 71.9555 339.197 69.4712 342.541 64.6937V71ZM321.997 55.8075C321.997 51.2211 325.724 48.8324 333.272 48.8324C335.566 48.8324 337.763 49.0235 340.916 49.5012V53.1321C340.916 59.0562 336.808 62.7827 330.024 62.7827C325.055 62.7827 321.997 60.1073 321.997 55.8075ZM361.439 45.4881C361.439 60.3939 370.325 71.9555 384.084 71.9555C390.677 71.9555 396.219 68.9934 400.232 63.6426V71H412.367V2.39497H399.181V26.5692C395.359 21.6961 390.199 19.0207 384.084 19.0207C370.325 19.0207 361.439 30.3912 361.439 45.4881ZM375.102 45.4881C375.102 35.742 380.549 30.7734 387.046 30.7734C393.544 30.7734 399.086 35.6464 399.086 45.297C399.086 54.9476 393.639 60.1073 387.046 60.1073C380.549 60.1073 375.102 55.0431 375.102 45.4881ZM446.39 71.86C458.811 71.86 467.697 65.267 470.564 53.7054H457.378C455.849 58.7696 451.932 61.6361 446.103 61.6361C439.319 61.6361 435.306 57.0497 434.446 48.7368H470.659C473.048 32.1111 462.347 19.0207 446.199 19.0207C431.484 19.0207 420.878 30.1045 420.878 45.297C420.878 61.2539 431.102 71.86 446.39 71.86ZM445.912 28.7668C452.218 28.7668 456.231 33.2577 456.614 40.3284H434.637C435.784 32.7799 439.701 28.7668 445.912 28.7668Z" fill="white"/>
<path d="M184.461 49.6923C184.461 39.564 177.964 34.0221 165.924 31.6333L154.172 29.2446C149.203 28.2891 144.903 26.2825 144.903 21.6006C144.903 16.8231 148.917 12.8099 155.987 12.8099C163.249 12.8099 168.218 17.683 168.695 24.8493H183.41C182.455 10.5167 171.18 1.53502 155.796 1.53502C140.986 1.53502 130.189 10.3256 130.189 22.5561C130.189 33.9265 138.215 39.564 148.63 41.5705L159.905 43.7682C165.733 44.9148 169.078 47.4947 169.078 51.7944C169.078 57.3363 163.822 60.585 156.465 60.585C147.579 60.585 142.706 55.712 142.324 48.1635H127.609C128.66 62.6871 139.457 71.9555 156.752 71.9555C173.951 71.9555 184.461 62.7827 184.461 49.6923Z" fill="#8112F1"/>
<path d="M247.819 49.6923C247.819 39.564 241.322 34.0221 229.282 31.6333L217.53 29.2446C212.561 28.2891 208.261 26.2825 208.261 21.6006C208.261 16.8231 212.275 12.8099 219.345 12.8099C226.607 12.8099 231.576 17.683 232.053 24.8493H246.768C245.813 10.5167 234.538 1.53502 219.154 1.53502C204.344 1.53502 193.547 10.3256 193.547 22.5561C193.547 33.9265 201.573 39.564 211.988 41.5705L223.263 43.7682C229.091 44.9148 232.436 47.4947 232.436 51.7944C232.436 57.3363 227.18 60.585 219.823 60.585C210.937 60.585 206.064 55.712 205.682 48.1635H190.967C192.018 62.6871 202.815 71.9555 220.11 71.9555C237.309 71.9555 247.819 62.7827 247.819 49.6923Z" fill="#F1BD12"/>
</svg>
